ply
format ascii 1.0
element vertex 24
property float x
property float y
property float z
property float nx
property float ny
property float nz
property float s
property float t
element face 12
property list uchar uint vertex_indices
end_header
-0.5 0.5 0.5 -1.0 0.0 0.0 0.0 0.0
-0.5 0.5 -0.5 -1.0 0.0 0.0 0.33333 0.0
-0.5 -0.5 -0.5 -1.0 0.0 0.0 0.33333 0.33333
0.5 0.5 0.5 0.0 1.0 0.0 0.66666 0.0
0.5 0.5 -0.5 0.0 1.0 0.0 0.66666 0.33333
-0.5 0.5 -0.5 0.0 1.0 0.0 0.33333 0.33333
0.5 -0.5 0.5 1.0 0.0 0.0 0.66666 0.33333
0.5 -0.5 -0.5 1.0 0.0 0.0 0.66666 0.0
0.5 0.5 -0.5 1.0 0.0 0.0 1.0 0.0
-0.5 -0.5 0.5 0.0 -1.0 0.0 0.0 0.66666
-0.5 -0.5 -0.5 0.0 -1.0 0.0 0.0 0.33333
0.5 -0.5 -0.5 0.0 -1.0 0.0 0.33333 0.33333
-0.5 0.5 -0.5 0.0 0.0 -1.0 0.0 0.66666
0.5 0.5 -0.5 0.0 0.0 -1.0 0.33333 0.66666
0.5 -0.5 -0.5 0.0 0.0 -1.0 0.33333 1.0
0.5 0.5 0.5 0.0 0.0 1.0 0.66666 0.66666
-0.5 0.5 0.5 0.0 0.0 1.0 0.33333 0.66666
-0.5 -0.5 0.5 0.0 0.0 1.0 0.33333 0.33333
-0.5 -0.5 0.5 -1.0 0.0 0.0 0.0 0.33333
-0.5 0.5 0.5 0.0 1.0 0.0 0.33333 0.0
0.5 0.5 0.5 1.0 0.0 0.0 1.0 0.33333
0.5 -0.5 0.5 0.0 -1.0 0.0 0.33333 0.66666
-0.5 -0.5 -0.5 0.0 0.0 -1.0 0.0 1.0
0.5 -0.5 0.5 0.0 0.0 1.0 0.66666 0.33333
3 0 1 2
3 3 4 5
3 6 7 8
3 9 10 11
3 12 13 14
3 15 16 17
3 18 0 2
3 19 3 5
3 20 6 8
3 21 9 11
3 22 12 14
3 23 15 17
